<?xml version="1.0" encoding="UTF-8" standalone="no"?>
<!DOCTYPE svg PUBLIC "-//W3C//DTD SVG 1.1//EN"
 "http://www.w3.org/Graphics/SVG/1.1/DTD/svg11.dtd">
<!-- Generated by graphviz version 2.47.3 (20210619.1520)
 -->
<!-- Title: dependencies Pages: 1 -->
<svg width="294pt" height="247pt"
 viewBox="0.00 0.00 294.00 246.80" xmlns="http://www.w3.org/2000/svg" xmlns:xlink="http://www.w3.org/1999/xlink">
<g id="graph0" class="graph" transform="scale(1 1) rotate(0) translate(4 242.8)">
<title>dependencies</title>
<polygon fill="white" stroke="transparent" points="-4,4 -4,-242.8 290,-242.8 290,4 -4,4"/>
<text text-anchor="middle" x="143" y="-8.2" font-family="sans-serif" font-size="14.00">dependencies</text>
<g id="clust1" class="cluster">
<title>cluster_SmsModule</title>
<polygon fill="none" stroke="black" stroke-dasharray="1,5" points="8,-32.8 8,-230.8 278,-230.8 278,-32.8 8,-32.8"/>
</g>
<g id="clust3" class="cluster">
<title>cluster_SmsModule_imports</title>
<polygon fill="none" stroke="black" points="154,-40.8 154,-92.8 270,-92.8 270,-40.8 154,-40.8"/>
</g>
<g id="clust4" class="cluster">
<title>cluster_SmsModule_exports</title>
<polygon fill="none" stroke="black" points="95,-170.8 95,-222.8 197,-222.8 197,-170.8 95,-170.8"/>
</g>
<g id="clust6" class="cluster">
<title>cluster_SmsModule_providers</title>
<polygon fill="none" stroke="black" points="16,-40.8 16,-92.8 146,-92.8 146,-40.8 16,-40.8"/>
</g>
<!-- TwillioModule -->
<g id="node1" class="node">
<title>TwillioModule</title>
<polygon fill="#8dd3c7" stroke="black" points="262.27,-84.8 259.27,-88.8 238.27,-88.8 235.27,-84.8 161.73,-84.8 161.73,-48.8 262.27,-48.8 262.27,-84.8"/>
<text text-anchor="middle" x="212" y="-62.6" font-family="Times,serif" font-size="14.00">TwillioModule</text>
</g>
<!-- SmsModule -->
<g id="node2" class="node">
<title>SmsModule</title>
<polygon fill="#8dd3c7" stroke="black" points="187.67,-149.8 184.67,-153.8 163.67,-153.8 160.67,-149.8 104.33,-149.8 104.33,-113.8 187.67,-113.8 187.67,-149.8"/>
<text text-anchor="middle" x="146" y="-127.6" font-family="Times,serif" font-size="14.00">SmsModule</text>
</g>
<!-- TwillioModule&#45;&gt;SmsModule -->
<g id="edge1" class="edge">
<title>TwillioModule&#45;&gt;SmsModule</title>
<path fill="none" stroke="black" d="M174.72,-84.91C174.72,-84.91 174.72,-103.79 174.72,-103.79"/>
<polygon fill="black" stroke="black" points="171.22,-103.79 174.72,-113.79 178.22,-103.79 171.22,-103.79"/>
</g>
<!-- SmsService  -->
<g id="node3" class="node">
<title>SmsService </title>
<polygon fill="#fb8072" stroke="black" points="188.6,-214.8 103.4,-214.8 103.4,-178.8 188.6,-178.8 188.6,-214.8"/>
<text text-anchor="middle" x="146" y="-192.6" font-family="Times,serif" font-size="14.00">SmsService </text>
</g>
<!-- SmsModule&#45;&gt;SmsService  -->
<g id="edge2" class="edge">
<title>SmsModule&#45;&gt;SmsService </title>
<path fill="none" stroke="black" stroke-dasharray="5,2" d="M146,-149.91C146,-149.91 146,-168.79 146,-168.79"/>
<polygon fill="black" stroke="black" points="142.5,-168.79 146,-178.79 149.5,-168.79 142.5,-168.79"/>
</g>
<!-- SmsService -->
<g id="node4" class="node">
<title>SmsService</title>
<ellipse fill="#fdb462" stroke="black" cx="81" cy="-66.8" rx="56.76" ry="18"/>
<text text-anchor="middle" x="81" y="-62.6" font-family="Times,serif" font-size="14.00">SmsService</text>
</g>
<!-- SmsService&#45;&gt;SmsModule -->
<g id="edge3" class="edge">
<title>SmsService&#45;&gt;SmsModule</title>
<path fill="none" stroke="black" d="M120.9,-79.64C120.9,-79.64 120.9,-103.32 120.9,-103.32"/>
<polygon fill="black" stroke="black" points="117.4,-103.32 120.9,-113.32 124.4,-103.32 117.4,-103.32"/>
</g>
</g>
</svg>
