<?xml version="1.0" encoding="UTF-8" standalone="no"?>
<!DOCTYPE svg PUBLIC "-//W3C//DTD SVG 1.1//EN"
 "http://www.w3.org/Graphics/SVG/1.1/DTD/svg11.dtd">
<!-- Generated by graphviz version 2.47.3 (20210619.1520)
 -->
<!-- Title: dependencies Pages: 1 -->
<svg width="781pt" height="247pt"
 viewBox="0.00 0.00 781.00 246.80" xmlns="http://www.w3.org/2000/svg" xmlns:xlink="http://www.w3.org/1999/xlink">
<g id="graph0" class="graph" transform="scale(1 1) rotate(0) translate(4 242.8)">
<title>dependencies</title>
<polygon fill="white" stroke="transparent" points="-4,4 -4,-242.8 777,-242.8 777,4 -4,4"/>
<text text-anchor="middle" x="386.5" y="-8.2" font-family="sans-serif" font-size="14.00">dependencies</text>
<g id="clust1" class="cluster">
<title>cluster_UserModule</title>
<polygon fill="none" stroke="black" stroke-dasharray="1,5" points="8,-32.8 8,-230.8 765,-230.8 765,-32.8 8,-32.8"/>
</g>
<g id="clust4" class="cluster">
<title>cluster_UserModule_exports</title>
<polygon fill="none" stroke="black" points="359,-170.8 359,-222.8 463,-222.8 463,-170.8 359,-170.8"/>
</g>
<g id="clust3" class="cluster">
<title>cluster_UserModule_imports</title>
<polygon fill="none" stroke="black" points="156,-40.8 156,-92.8 757,-92.8 757,-40.8 156,-40.8"/>
</g>
<g id="clust6" class="cluster">
<title>cluster_UserModule_providers</title>
<polygon fill="none" stroke="black" points="16,-40.8 16,-92.8 148,-92.8 148,-40.8 16,-40.8"/>
</g>
<!-- AbilityModule -->
<g id="node1" class="node">
<title>AbilityModule</title>
<polygon fill="#8dd3c7" stroke="black" points="748.72,-84.8 745.72,-88.8 724.72,-88.8 721.72,-84.8 649.28,-84.8 649.28,-48.8 748.72,-48.8 748.72,-84.8"/>
<text text-anchor="middle" x="699" y="-62.6" font-family="Times,serif" font-size="14.00">AbilityModule</text>
</g>
<!-- UserModule -->
<g id="node6" class="node">
<title>UserModule</title>
<polygon fill="#8dd3c7" stroke="black" points="453.98,-149.8 450.98,-153.8 429.98,-153.8 426.98,-149.8 368.02,-149.8 368.02,-113.8 453.98,-113.8 453.98,-149.8"/>
<text text-anchor="middle" x="411" y="-127.6" font-family="Times,serif" font-size="14.00">UserModule</text>
</g>
<!-- AbilityModule&#45;&gt;UserModule -->
<g id="edge1" class="edge">
<title>AbilityModule&#45;&gt;UserModule</title>
<path fill="none" stroke="black" d="M699,-85.08C699,-106.12 699,-137.8 699,-137.8 699,-137.8 464.12,-137.8 464.12,-137.8"/>
<polygon fill="black" stroke="black" points="464.12,-134.3 454.12,-137.8 464.12,-141.3 464.12,-134.3"/>
</g>
<!-- EmailModule -->
<g id="node2" class="node">
<title>EmailModule</title>
<polygon fill="#8dd3c7" stroke="black" points="631.49,-84.8 628.49,-88.8 607.49,-88.8 604.49,-84.8 538.51,-84.8 538.51,-48.8 631.49,-48.8 631.49,-84.8"/>
<text text-anchor="middle" x="585" y="-62.6" font-family="Times,serif" font-size="14.00">EmailModule</text>
</g>
<!-- EmailModule&#45;&gt;UserModule -->
<g id="edge2" class="edge">
<title>EmailModule&#45;&gt;UserModule</title>
<path fill="none" stroke="black" d="M585,-84.82C585,-102.17 585,-125.8 585,-125.8 585,-125.8 464.01,-125.8 464.01,-125.8"/>
<polygon fill="black" stroke="black" points="464.01,-122.3 454.01,-125.8 464.01,-129.3 464.01,-122.3"/>
</g>
<!-- ReferralModule -->
<g id="node3" class="node">
<title>ReferralModule</title>
<polygon fill="#8dd3c7" stroke="black" points="520.9,-84.8 517.9,-88.8 496.9,-88.8 493.9,-84.8 415.1,-84.8 415.1,-48.8 520.9,-48.8 520.9,-84.8"/>
<text text-anchor="middle" x="468" y="-62.6" font-family="Times,serif" font-size="14.00">ReferralModule</text>
</g>
<!-- ReferralModule&#45;&gt;UserModule -->
<g id="edge3" class="edge">
<title>ReferralModule&#45;&gt;UserModule</title>
<path fill="none" stroke="black" d="M434.64,-84.91C434.64,-84.91 434.64,-103.79 434.64,-103.79"/>
<polygon fill="black" stroke="black" points="431.14,-103.79 434.64,-113.79 438.14,-103.79 431.14,-103.79"/>
</g>
<!-- SmsModule -->
<g id="node4" class="node">
<title>SmsModule</title>
<polygon fill="#8dd3c7" stroke="black" points="396.67,-84.8 393.67,-88.8 372.67,-88.8 369.67,-84.8 313.33,-84.8 313.33,-48.8 396.67,-48.8 396.67,-84.8"/>
<text text-anchor="middle" x="355" y="-62.6" font-family="Times,serif" font-size="14.00">SmsModule</text>
</g>
<!-- SmsModule&#45;&gt;UserModule -->
<g id="edge4" class="edge">
<title>SmsModule&#45;&gt;UserModule</title>
<path fill="none" stroke="black" d="M382.42,-84.91C382.42,-84.91 382.42,-103.79 382.42,-103.79"/>
<polygon fill="black" stroke="black" points="378.92,-103.79 382.42,-113.79 385.92,-103.79 378.92,-103.79"/>
</g>
<!-- TransactionsModule -->
<g id="node5" class="node">
<title>TransactionsModule</title>
<polygon fill="#8dd3c7" stroke="black" points="295.58,-84.8 292.58,-88.8 271.58,-88.8 268.58,-84.8 164.42,-84.8 164.42,-48.8 295.58,-48.8 295.58,-84.8"/>
<text text-anchor="middle" x="230" y="-62.6" font-family="Times,serif" font-size="14.00">TransactionsModule</text>
</g>
<!-- TransactionsModule&#45;&gt;UserModule -->
<g id="edge5" class="edge">
<title>TransactionsModule&#45;&gt;UserModule</title>
<path fill="none" stroke="black" d="M230,-84.82C230,-102.17 230,-125.8 230,-125.8 230,-125.8 357.65,-125.8 357.65,-125.8"/>
<polygon fill="black" stroke="black" points="357.65,-129.3 367.65,-125.8 357.65,-122.3 357.65,-129.3"/>
</g>
<!-- UserService  -->
<g id="node7" class="node">
<title>UserService </title>
<polygon fill="#fb8072" stroke="black" points="454.9,-214.8 367.1,-214.8 367.1,-178.8 454.9,-178.8 454.9,-214.8"/>
<text text-anchor="middle" x="411" y="-192.6" font-family="Times,serif" font-size="14.00">UserService </text>
</g>
<!-- UserModule&#45;&gt;UserService  -->
<g id="edge6" class="edge">
<title>UserModule&#45;&gt;UserService </title>
<path fill="none" stroke="black" stroke-dasharray="5,2" d="M411,-149.91C411,-149.91 411,-168.79 411,-168.79"/>
<polygon fill="black" stroke="black" points="407.5,-168.79 411,-178.79 414.5,-168.79 407.5,-168.79"/>
</g>
<!-- UserService -->
<g id="node8" class="node">
<title>UserService</title>
<ellipse fill="#fdb462" stroke="black" cx="82" cy="-66.8" rx="58.44" ry="18"/>
<text text-anchor="middle" x="82" y="-62.6" font-family="Times,serif" font-size="14.00">UserService</text>
</g>
<!-- UserService&#45;&gt;UserModule -->
<g id="edge7" class="edge">
<title>UserService&#45;&gt;UserModule</title>
<path fill="none" stroke="black" d="M82,-85.08C82,-106.12 82,-137.8 82,-137.8 82,-137.8 357.99,-137.8 357.99,-137.8"/>
<polygon fill="black" stroke="black" points="357.99,-141.3 367.99,-137.8 357.99,-134.3 357.99,-141.3"/>
</g>
</g>
</svg>
