<?xml version="1.0" encoding="UTF-8" standalone="no"?>
<!DOCTYPE svg PUBLIC "-//W3C//DTD SVG 1.1//EN"
 "http://www.w3.org/Graphics/SVG/1.1/DTD/svg11.dtd">
<!-- Generated by graphviz version 2.47.3 (20210619.1520)
 -->
<!-- Title: dependencies Pages: 1 -->
<svg width="432pt" height="174pt"
 viewBox="0.00 0.00 432.00 173.80" xmlns="http://www.w3.org/2000/svg" xmlns:xlink="http://www.w3.org/1999/xlink">
<g id="graph0" class="graph" transform="scale(1 1) rotate(0) translate(4 169.8)">
<title>dependencies</title>
<polygon fill="white" stroke="transparent" points="-4,4 -4,-169.8 428,-169.8 428,4 -4,4"/>
<text text-anchor="middle" x="212" y="-8.2" font-family="sans-serif" font-size="14.00">dependencies</text>
<g id="clust1" class="cluster">
<title>cluster_TransfersModule</title>
<polygon fill="none" stroke="black" stroke-dasharray="1,5" points="8,-32.8 8,-157.8 416,-157.8 416,-32.8 8,-32.8"/>
</g>
<g id="clust6" class="cluster">
<title>cluster_TransfersModule_providers</title>
<polygon fill="none" stroke="black" points="240,-40.8 240,-92.8 408,-92.8 408,-40.8 240,-40.8"/>
</g>
<g id="clust3" class="cluster">
<title>cluster_TransfersModule_imports</title>
<polygon fill="none" stroke="black" points="16,-40.8 16,-92.8 232,-92.8 232,-40.8 16,-40.8"/>
</g>
<!-- UserModule -->
<g id="node1" class="node">
<title>UserModule</title>
<polygon fill="#8dd3c7" stroke="black" points="223.98,-84.8 220.98,-88.8 199.98,-88.8 196.98,-84.8 138.02,-84.8 138.02,-48.8 223.98,-48.8 223.98,-84.8"/>
<text text-anchor="middle" x="181" y="-62.6" font-family="Times,serif" font-size="14.00">UserModule</text>
</g>
<!-- TransfersModule -->
<g id="node3" class="node">
<title>TransfersModule</title>
<polygon fill="#8dd3c7" stroke="black" points="237.4,-149.8 234.4,-153.8 213.4,-153.8 210.4,-149.8 124.6,-149.8 124.6,-113.8 237.4,-113.8 237.4,-149.8"/>
<text text-anchor="middle" x="181" y="-127.6" font-family="Times,serif" font-size="14.00">TransfersModule</text>
</g>
<!-- UserModule&#45;&gt;TransfersModule -->
<g id="edge1" class="edge">
<title>UserModule&#45;&gt;TransfersModule</title>
<path fill="none" stroke="black" d="M181,-84.91C181,-84.91 181,-103.79 181,-103.79"/>
<polygon fill="black" stroke="black" points="177.5,-103.79 181,-113.79 184.5,-103.79 177.5,-103.79"/>
</g>
<!-- WalletModule -->
<g id="node2" class="node">
<title>WalletModule</title>
<polygon fill="#8dd3c7" stroke="black" points="120.37,-84.8 117.37,-88.8 96.37,-88.8 93.37,-84.8 23.63,-84.8 23.63,-48.8 120.37,-48.8 120.37,-84.8"/>
<text text-anchor="middle" x="72" y="-62.6" font-family="Times,serif" font-size="14.00">WalletModule</text>
</g>
<!-- WalletModule&#45;&gt;TransfersModule -->
<g id="edge2" class="edge">
<title>WalletModule&#45;&gt;TransfersModule</title>
<path fill="none" stroke="black" d="M120.51,-66.8C126.96,-66.8 131.41,-66.8 131.41,-66.8 131.41,-66.8 131.41,-103.69 131.41,-103.69"/>
<polygon fill="black" stroke="black" points="127.91,-103.69 131.41,-113.69 134.91,-103.69 127.91,-103.69"/>
</g>
<!-- TransfersService -->
<g id="node4" class="node">
<title>TransfersService</title>
<ellipse fill="#fdb462" stroke="black" cx="324" cy="-66.8" rx="76.4" ry="18"/>
<text text-anchor="middle" x="324" y="-62.6" font-family="Times,serif" font-size="14.00">TransfersService</text>
</g>
<!-- TransfersService&#45;&gt;TransfersModule -->
<g id="edge3" class="edge">
<title>TransfersService&#45;&gt;TransfersModule</title>
<path fill="none" stroke="black" d="M247.29,-66.8C237.38,-66.8 230.59,-66.8 230.59,-66.8 230.59,-66.8 230.59,-103.69 230.59,-103.69"/>
<polygon fill="black" stroke="black" points="227.09,-103.69 230.59,-113.69 234.09,-103.69 227.09,-103.69"/>
</g>
</g>
</svg>
