<?xml version="1.0" encoding="UTF-8" standalone="no"?>
<!DOCTYPE svg PUBLIC "-//W3C//DTD SVG 1.1//EN"
 "http://www.w3.org/Graphics/SVG/1.1/DTD/svg11.dtd">
<!-- Generated by graphviz version 2.47.3 (20210619.1520)
 -->
<!-- Title: dependencies Pages: 1 -->
<svg width="939pt" height="174pt"
 viewBox="0.00 0.00 939.00 173.80" xmlns="http://www.w3.org/2000/svg" xmlns:xlink="http://www.w3.org/1999/xlink">
<g id="graph0" class="graph" transform="scale(1 1) rotate(0) translate(4 169.8)">
<title>dependencies</title>
<polygon fill="white" stroke="transparent" points="-4,4 -4,-169.8 935,-169.8 935,4 -4,4"/>
<text text-anchor="middle" x="465.5" y="-8.2" font-family="sans-serif" font-size="14.00">dependencies</text>
<g id="clust1" class="cluster">
<title>cluster_AdminModule</title>
<polygon fill="none" stroke="black" stroke-dasharray="1,5" points="8,-32.8 8,-157.8 923,-157.8 923,-32.8 8,-32.8"/>
</g>
<g id="clust6" class="cluster">
<title>cluster_AdminModule_providers</title>
<polygon fill="none" stroke="black" points="765,-40.8 765,-92.8 915,-92.8 915,-40.8 765,-40.8"/>
</g>
<g id="clust3" class="cluster">
<title>cluster_AdminModule_imports</title>
<polygon fill="none" stroke="black" points="16,-40.8 16,-92.8 757,-92.8 757,-40.8 16,-40.8"/>
</g>
<!-- BankModule -->
<g id="node1" class="node">
<title>BankModule</title>
<polygon fill="#8dd3c7" stroke="black" points="748.6,-84.8 745.6,-88.8 724.6,-88.8 721.6,-84.8 659.4,-84.8 659.4,-48.8 748.6,-48.8 748.6,-84.8"/>
<text text-anchor="middle" x="704" y="-62.6" font-family="Times,serif" font-size="14.00">BankModule</text>
</g>
<!-- AdminModule -->
<g id="node7" class="node">
<title>AdminModule</title>
<polygon fill="#8dd3c7" stroke="black" points="493.44,-149.8 490.44,-153.8 469.44,-153.8 466.44,-149.8 394.56,-149.8 394.56,-113.8 493.44,-113.8 493.44,-149.8"/>
<text text-anchor="middle" x="444" y="-127.6" font-family="Times,serif" font-size="14.00">AdminModule</text>
</g>
<!-- BankModule&#45;&gt;AdminModule -->
<g id="edge1" class="edge">
<title>BankModule&#45;&gt;AdminModule</title>
<path fill="none" stroke="black" d="M704,-84.91C704,-104.14 704,-131.8 704,-131.8 704,-131.8 503.52,-131.8 503.52,-131.8"/>
<polygon fill="black" stroke="black" points="503.52,-128.3 493.52,-131.8 503.52,-135.3 503.52,-128.3"/>
</g>
<!-- FlutterwaveModule -->
<g id="node2" class="node">
<title>FlutterwaveModule</title>
<polygon fill="#8dd3c7" stroke="black" points="641.42,-84.8 638.42,-88.8 617.42,-88.8 614.42,-84.8 514.58,-84.8 514.58,-48.8 641.42,-48.8 641.42,-84.8"/>
<text text-anchor="middle" x="578" y="-62.6" font-family="Times,serif" font-size="14.00">FlutterwaveModule</text>
</g>
<!-- FlutterwaveModule&#45;&gt;AdminModule -->
<g id="edge2" class="edge">
<title>FlutterwaveModule&#45;&gt;AdminModule</title>
<path fill="none" stroke="black" d="M578,-84.83C578,-101.2 578,-122.8 578,-122.8 578,-122.8 503.52,-122.8 503.52,-122.8"/>
<polygon fill="black" stroke="black" points="503.52,-119.3 493.52,-122.8 503.52,-126.3 503.52,-119.3"/>
</g>
<!-- SettingsModule -->
<g id="node3" class="node">
<title>SettingsModule</title>
<polygon fill="#8dd3c7" stroke="black" points="496.16,-84.8 493.16,-88.8 472.16,-88.8 469.16,-84.8 391.84,-84.8 391.84,-48.8 496.16,-48.8 496.16,-84.8"/>
<text text-anchor="middle" x="444" y="-62.6" font-family="Times,serif" font-size="14.00">SettingsModule</text>
</g>
<!-- SettingsModule&#45;&gt;AdminModule -->
<g id="edge3" class="edge">
<title>SettingsModule&#45;&gt;AdminModule</title>
<path fill="none" stroke="black" d="M444,-84.91C444,-84.91 444,-103.79 444,-103.79"/>
<polygon fill="black" stroke="black" points="440.5,-103.79 444,-113.79 447.5,-103.79 440.5,-103.79"/>
</g>
<!-- TransactionsModule -->
<g id="node4" class="node">
<title>TransactionsModule</title>
<polygon fill="#8dd3c7" stroke="black" points="373.58,-84.8 370.58,-88.8 349.58,-88.8 346.58,-84.8 242.42,-84.8 242.42,-48.8 373.58,-48.8 373.58,-84.8"/>
<text text-anchor="middle" x="308" y="-62.6" font-family="Times,serif" font-size="14.00">TransactionsModule</text>
</g>
<!-- TransactionsModule&#45;&gt;AdminModule -->
<g id="edge4" class="edge">
<title>TransactionsModule&#45;&gt;AdminModule</title>
<path fill="none" stroke="black" d="M308,-84.83C308,-101.2 308,-122.8 308,-122.8 308,-122.8 384.52,-122.8 384.52,-122.8"/>
<polygon fill="black" stroke="black" points="384.52,-126.3 394.52,-122.8 384.52,-119.3 384.52,-126.3"/>
</g>
<!-- UserModule -->
<g id="node5" class="node">
<title>UserModule</title>
<polygon fill="#8dd3c7" stroke="black" points="223.98,-84.8 220.98,-88.8 199.98,-88.8 196.98,-84.8 138.02,-84.8 138.02,-48.8 223.98,-48.8 223.98,-84.8"/>
<text text-anchor="middle" x="181" y="-62.6" font-family="Times,serif" font-size="14.00">UserModule</text>
</g>
<!-- UserModule&#45;&gt;AdminModule -->
<g id="edge5" class="edge">
<title>UserModule&#45;&gt;AdminModule</title>
<path fill="none" stroke="black" d="M181,-84.91C181,-104.14 181,-131.8 181,-131.8 181,-131.8 384.53,-131.8 384.53,-131.8"/>
<polygon fill="black" stroke="black" points="384.53,-135.3 394.53,-131.8 384.53,-128.3 384.53,-135.3"/>
</g>
<!-- WalletModule -->
<g id="node6" class="node">
<title>WalletModule</title>
<polygon fill="#8dd3c7" stroke="black" points="120.37,-84.8 117.37,-88.8 96.37,-88.8 93.37,-84.8 23.63,-84.8 23.63,-48.8 120.37,-48.8 120.37,-84.8"/>
<text text-anchor="middle" x="72" y="-62.6" font-family="Times,serif" font-size="14.00">WalletModule</text>
</g>
<!-- WalletModule&#45;&gt;AdminModule -->
<g id="edge6" class="edge">
<title>WalletModule&#45;&gt;AdminModule</title>
<path fill="none" stroke="black" d="M72,-85.09C72,-107.01 72,-140.8 72,-140.8 72,-140.8 384.6,-140.8 384.6,-140.8"/>
<polygon fill="black" stroke="black" points="384.6,-144.3 394.6,-140.8 384.6,-137.3 384.6,-144.3"/>
</g>
<!-- AdminService -->
<g id="node8" class="node">
<title>AdminService</title>
<ellipse fill="#fdb462" stroke="black" cx="840" cy="-66.8" rx="66.63" ry="18"/>
<text text-anchor="middle" x="840" y="-62.6" font-family="Times,serif" font-size="14.00">AdminService</text>
</g>
<!-- AdminService&#45;&gt;AdminModule -->
<g id="edge7" class="edge">
<title>AdminService&#45;&gt;AdminModule</title>
<path fill="none" stroke="black" d="M840,-85.09C840,-107.01 840,-140.8 840,-140.8 840,-140.8 503.35,-140.8 503.35,-140.8"/>
<polygon fill="black" stroke="black" points="503.35,-137.3 493.35,-140.8 503.35,-144.3 503.35,-137.3"/>
</g>
</g>
</svg>
