<?xml version="1.0" encoding="UTF-8" standalone="no"?>
<!DOCTYPE svg PUBLIC "-//W3C//DTD SVG 1.1//EN"
 "http://www.w3.org/Graphics/SVG/1.1/DTD/svg11.dtd">
<!-- Generated by graphviz version 2.47.3 (20210619.1520)
 -->
<!-- Title: dependencies Pages: 1 -->
<svg width="582pt" height="247pt"
 viewBox="0.00 0.00 582.00 246.80" xmlns="http://www.w3.org/2000/svg" xmlns:xlink="http://www.w3.org/1999/xlink">
<g id="graph0" class="graph" transform="scale(1 1) rotate(0) translate(4 242.8)">
<title>dependencies</title>
<polygon fill="white" stroke="transparent" points="-4,4 -4,-242.8 578,-242.8 578,4 -4,4"/>
<text text-anchor="middle" x="287" y="-8.2" font-family="sans-serif" font-size="14.00">dependencies</text>
<g id="clust1" class="cluster">
<title>cluster_AccountModule</title>
<polygon fill="none" stroke="black" stroke-dasharray="1,5" points="8,-32.8 8,-230.8 566,-230.8 566,-32.8 8,-32.8"/>
</g>
<g id="clust3" class="cluster">
<title>cluster_AccountModule_imports</title>
<polygon fill="none" stroke="black" points="186,-40.8 186,-92.8 558,-92.8 558,-40.8 186,-40.8"/>
</g>
<g id="clust4" class="cluster">
<title>cluster_AccountModule_exports</title>
<polygon fill="none" stroke="black" points="232,-170.8 232,-222.8 356,-222.8 356,-170.8 232,-170.8"/>
</g>
<g id="clust6" class="cluster">
<title>cluster_AccountModule_providers</title>
<polygon fill="none" stroke="black" points="16,-40.8 16,-92.8 178,-92.8 178,-40.8 16,-40.8"/>
</g>
<!-- FlutterwaveModule -->
<g id="node1" class="node">
<title>FlutterwaveModule</title>
<polygon fill="#8dd3c7" stroke="black" points="550.42,-84.8 547.42,-88.8 526.42,-88.8 523.42,-84.8 423.58,-84.8 423.58,-48.8 550.42,-48.8 550.42,-84.8"/>
<text text-anchor="middle" x="487" y="-62.6" font-family="Times,serif" font-size="14.00">FlutterwaveModule</text>
</g>
<!-- AccountModule -->
<g id="node4" class="node">
<title>AccountModule</title>
<polygon fill="#8dd3c7" stroke="black" points="347.48,-149.8 344.48,-153.8 323.48,-153.8 320.48,-149.8 240.52,-149.8 240.52,-113.8 347.48,-113.8 347.48,-149.8"/>
<text text-anchor="middle" x="294" y="-127.6" font-family="Times,serif" font-size="14.00">AccountModule</text>
</g>
<!-- FlutterwaveModule&#45;&gt;AccountModule -->
<g id="edge1" class="edge">
<title>FlutterwaveModule&#45;&gt;AccountModule</title>
<path fill="none" stroke="black" d="M487,-84.91C487,-104.14 487,-131.8 487,-131.8 487,-131.8 357.5,-131.8 357.5,-131.8"/>
<polygon fill="black" stroke="black" points="357.5,-128.3 347.5,-131.8 357.5,-135.3 357.5,-128.3"/>
</g>
<!-- MonnifyModule -->
<g id="node2" class="node">
<title>MonnifyModule</title>
<polygon fill="#8dd3c7" stroke="black" points="406.05,-84.8 403.05,-88.8 382.05,-88.8 379.05,-84.8 297.95,-84.8 297.95,-48.8 406.05,-48.8 406.05,-84.8"/>
<text text-anchor="middle" x="352" y="-62.6" font-family="Times,serif" font-size="14.00">MonnifyModule</text>
</g>
<!-- MonnifyModule&#45;&gt;AccountModule -->
<g id="edge2" class="edge">
<title>MonnifyModule&#45;&gt;AccountModule</title>
<path fill="none" stroke="black" d="M322.61,-84.91C322.61,-84.91 322.61,-103.79 322.61,-103.79"/>
<polygon fill="black" stroke="black" points="319.11,-103.79 322.61,-113.79 326.11,-103.79 319.11,-103.79"/>
</g>
<!-- UserModule -->
<g id="node3" class="node">
<title>UserModule</title>
<polygon fill="#8dd3c7" stroke="black" points="279.98,-84.8 276.98,-88.8 255.98,-88.8 252.98,-84.8 194.02,-84.8 194.02,-48.8 279.98,-48.8 279.98,-84.8"/>
<text text-anchor="middle" x="237" y="-62.6" font-family="Times,serif" font-size="14.00">UserModule</text>
</g>
<!-- UserModule&#45;&gt;AccountModule -->
<g id="edge3" class="edge">
<title>UserModule&#45;&gt;AccountModule</title>
<path fill="none" stroke="black" d="M260.25,-84.91C260.25,-84.91 260.25,-103.79 260.25,-103.79"/>
<polygon fill="black" stroke="black" points="256.75,-103.79 260.25,-113.79 263.75,-103.79 256.75,-103.79"/>
</g>
<!-- AccountService  -->
<g id="node5" class="node">
<title>AccountService </title>
<polygon fill="#fb8072" stroke="black" points="348.4,-214.8 239.6,-214.8 239.6,-178.8 348.4,-178.8 348.4,-214.8"/>
<text text-anchor="middle" x="294" y="-192.6" font-family="Times,serif" font-size="14.00">AccountService </text>
</g>
<!-- AccountModule&#45;&gt;AccountService  -->
<g id="edge4" class="edge">
<title>AccountModule&#45;&gt;AccountService </title>
<path fill="none" stroke="black" stroke-dasharray="5,2" d="M294,-149.91C294,-149.91 294,-168.79 294,-168.79"/>
<polygon fill="black" stroke="black" points="290.5,-168.79 294,-178.79 297.5,-168.79 290.5,-168.79"/>
</g>
<!-- AccountService -->
<g id="node6" class="node">
<title>AccountService</title>
<ellipse fill="#fdb462" stroke="black" cx="97" cy="-66.8" rx="72.91" ry="18"/>
<text text-anchor="middle" x="97" y="-62.6" font-family="Times,serif" font-size="14.00">AccountService</text>
</g>
<!-- AccountService&#45;&gt;AccountModule -->
<g id="edge5" class="edge">
<title>AccountService&#45;&gt;AccountModule</title>
<path fill="none" stroke="black" d="M97,-84.91C97,-104.14 97,-131.8 97,-131.8 97,-131.8 230.43,-131.8 230.43,-131.8"/>
<polygon fill="black" stroke="black" points="230.43,-135.3 240.43,-131.8 230.43,-128.3 230.43,-135.3"/>
</g>
</g>
</svg>
