<?xml version="1.0" encoding="UTF-8" standalone="no"?>
<!DOCTYPE svg PUBLIC "-//W3C//DTD SVG 1.1//EN"
 "http://www.w3.org/Graphics/SVG/1.1/DTD/svg11.dtd">
<!-- Generated by graphviz version 2.47.3 (20210619.1520)
 -->
<!-- Title: dependencies Pages: 1 -->
<svg width="192pt" height="247pt"
 viewBox="0.00 0.00 192.00 246.80" xmlns="http://www.w3.org/2000/svg" xmlns:xlink="http://www.w3.org/1999/xlink">
<g id="graph0" class="graph" transform="scale(1 1) rotate(0) translate(4 242.8)">
<title>dependencies</title>
<polygon fill="white" stroke="transparent" points="-4,4 -4,-242.8 188,-242.8 188,4 -4,4"/>
<text text-anchor="middle" x="92" y="-8.2" font-family="sans-serif" font-size="14.00">dependencies</text>
<g id="clust1" class="cluster">
<title>cluster_TwillioModule</title>
<polygon fill="none" stroke="black" stroke-dasharray="1,5" points="8,-32.8 8,-230.8 176,-230.8 176,-32.8 8,-32.8"/>
</g>
<g id="clust4" class="cluster">
<title>cluster_TwillioModule_exports</title>
<polygon fill="none" stroke="black" points="33,-170.8 33,-222.8 151,-222.8 151,-170.8 33,-170.8"/>
</g>
<g id="clust6" class="cluster">
<title>cluster_TwillioModule_providers</title>
<polygon fill="none" stroke="black" points="16,-40.8 16,-92.8 168,-92.8 168,-40.8 16,-40.8"/>
</g>
<!-- TwillioService  -->
<g id="node1" class="node">
<title>TwillioService </title>
<polygon fill="#fb8072" stroke="black" points="143.2,-214.8 40.8,-214.8 40.8,-178.8 143.2,-178.8 143.2,-214.8"/>
<text text-anchor="middle" x="92" y="-192.6" font-family="Times,serif" font-size="14.00">TwillioService </text>
</g>
<!-- TwillioModule -->
<g id="node2" class="node">
<title>TwillioModule</title>
<polygon fill="#8dd3c7" stroke="black" points="142.27,-149.8 139.27,-153.8 118.27,-153.8 115.27,-149.8 41.73,-149.8 41.73,-113.8 142.27,-113.8 142.27,-149.8"/>
<text text-anchor="middle" x="92" y="-127.6" font-family="Times,serif" font-size="14.00">TwillioModule</text>
</g>
<!-- TwillioModule&#45;&gt;TwillioService  -->
<g id="edge1" class="edge">
<title>TwillioModule&#45;&gt;TwillioService </title>
<path fill="none" stroke="black" stroke-dasharray="5,2" d="M92,-149.91C92,-149.91 92,-168.79 92,-168.79"/>
<polygon fill="black" stroke="black" points="88.5,-168.79 92,-178.79 95.5,-168.79 88.5,-168.79"/>
</g>
<!-- TwillioService -->
<g id="node3" class="node">
<title>TwillioService</title>
<ellipse fill="#fdb462" stroke="black" cx="92" cy="-66.8" rx="68.35" ry="18"/>
<text text-anchor="middle" x="92" y="-62.6" font-family="Times,serif" font-size="14.00">TwillioService</text>
</g>
<!-- TwillioService&#45;&gt;TwillioModule -->
<g id="edge2" class="edge">
<title>TwillioService&#45;&gt;TwillioModule</title>
<path fill="none" stroke="black" d="M92,-84.91C92,-84.91 92,-103.79 92,-103.79"/>
<polygon fill="black" stroke="black" points="88.5,-103.79 92,-113.79 95.5,-103.79 88.5,-103.79"/>
</g>
</g>
</svg>
