<?xml version="1.0" encoding="UTF-8" standalone="no"?>
<!DOCTYPE svg PUBLIC "-//W3C//DTD SVG 1.1//EN"
 "http://www.w3.org/Graphics/SVG/1.1/DTD/svg11.dtd">
<!-- Generated by graphviz version 2.47.3 (20210619.1520)
 -->
<!-- Title: dependencies Pages: 1 -->
<svg width="875pt" height="247pt"
 viewBox="0.00 0.00 875.00 246.80" xmlns="http://www.w3.org/2000/svg" xmlns:xlink="http://www.w3.org/1999/xlink">
<g id="graph0" class="graph" transform="scale(1 1) rotate(0) translate(4 242.8)">
<title>dependencies</title>
<polygon fill="white" stroke="transparent" points="-4,4 -4,-242.8 871,-242.8 871,4 -4,4"/>
<text text-anchor="middle" x="433.5" y="-8.2" font-family="sans-serif" font-size="14.00">dependencies</text>
<g id="clust1" class="cluster">
<title>cluster_TransactionsModule</title>
<polygon fill="none" stroke="black" stroke-dasharray="1,5" points="8,-32.8 8,-230.8 859,-230.8 859,-32.8 8,-32.8"/>
</g>
<g id="clust6" class="cluster">
<title>cluster_TransactionsModule_providers</title>
<polygon fill="none" stroke="black" points="657,-40.8 657,-92.8 851,-92.8 851,-40.8 657,-40.8"/>
</g>
<g id="clust4" class="cluster">
<title>cluster_TransactionsModule_exports</title>
<polygon fill="none" stroke="black" points="304,-170.8 304,-222.8 454,-222.8 454,-170.8 304,-170.8"/>
</g>
<g id="clust3" class="cluster">
<title>cluster_TransactionsModule_imports</title>
<polygon fill="none" stroke="black" points="16,-40.8 16,-92.8 649,-92.8 649,-40.8 16,-40.8"/>
</g>
<!-- FlutterwaveModule -->
<g id="node1" class="node">
<title>FlutterwaveModule</title>
<polygon fill="#8dd3c7" stroke="black" points="641.42,-84.8 638.42,-88.8 617.42,-88.8 614.42,-84.8 514.58,-84.8 514.58,-48.8 641.42,-48.8 641.42,-84.8"/>
<text text-anchor="middle" x="578" y="-62.6" font-family="Times,serif" font-size="14.00">FlutterwaveModule</text>
</g>
<!-- TransactionsModule -->
<g id="node6" class="node">
<title>TransactionsModule</title>
<polygon fill="#8dd3c7" stroke="black" points="444.58,-149.8 441.58,-153.8 420.58,-153.8 417.58,-149.8 313.42,-149.8 313.42,-113.8 444.58,-113.8 444.58,-149.8"/>
<text text-anchor="middle" x="379" y="-127.6" font-family="Times,serif" font-size="14.00">TransactionsModule</text>
</g>
<!-- FlutterwaveModule&#45;&gt;TransactionsModule -->
<g id="edge1" class="edge">
<title>FlutterwaveModule&#45;&gt;TransactionsModule</title>
<path fill="none" stroke="black" d="M578,-84.82C578,-102.17 578,-125.8 578,-125.8 578,-125.8 454.71,-125.8 454.71,-125.8"/>
<polygon fill="black" stroke="black" points="454.71,-122.3 444.71,-125.8 454.71,-129.3 454.71,-122.3"/>
</g>
<!-- MonnifyModule -->
<g id="node2" class="node">
<title>MonnifyModule</title>
<polygon fill="#8dd3c7" stroke="black" points="497.05,-84.8 494.05,-88.8 473.05,-88.8 470.05,-84.8 388.95,-84.8 388.95,-48.8 497.05,-48.8 497.05,-84.8"/>
<text text-anchor="middle" x="443" y="-62.6" font-family="Times,serif" font-size="14.00">MonnifyModule</text>
</g>
<!-- MonnifyModule&#45;&gt;TransactionsModule -->
<g id="edge2" class="edge">
<title>MonnifyModule&#45;&gt;TransactionsModule</title>
<path fill="none" stroke="black" d="M416.63,-84.91C416.63,-84.91 416.63,-103.79 416.63,-103.79"/>
<polygon fill="black" stroke="black" points="413.13,-103.79 416.63,-113.79 420.13,-103.79 413.13,-103.79"/>
</g>
<!-- PaystackModule -->
<g id="node3" class="node">
<title>PaystackModule</title>
<polygon fill="#8dd3c7" stroke="black" points="370.81,-84.8 367.81,-88.8 346.81,-88.8 343.81,-84.8 261.19,-84.8 261.19,-48.8 370.81,-48.8 370.81,-84.8"/>
<text text-anchor="middle" x="316" y="-62.6" font-family="Times,serif" font-size="14.00">PaystackModule</text>
</g>
<!-- PaystackModule&#45;&gt;TransactionsModule -->
<g id="edge3" class="edge">
<title>PaystackModule&#45;&gt;TransactionsModule</title>
<path fill="none" stroke="black" d="M342.06,-84.91C342.06,-84.91 342.06,-103.79 342.06,-103.79"/>
<polygon fill="black" stroke="black" points="338.56,-103.79 342.06,-113.79 345.56,-103.79 338.56,-103.79"/>
</g>
<!-- SettingsModule -->
<g id="node4" class="node">
<title>SettingsModule</title>
<polygon fill="#8dd3c7" stroke="black" points="243.16,-84.8 240.16,-88.8 219.16,-88.8 216.16,-84.8 138.84,-84.8 138.84,-48.8 243.16,-48.8 243.16,-84.8"/>
<text text-anchor="middle" x="191" y="-62.6" font-family="Times,serif" font-size="14.00">SettingsModule</text>
</g>
<!-- SettingsModule&#45;&gt;TransactionsModule -->
<g id="edge4" class="edge">
<title>SettingsModule&#45;&gt;TransactionsModule</title>
<path fill="none" stroke="black" d="M191,-84.82C191,-102.17 191,-125.8 191,-125.8 191,-125.8 303.25,-125.8 303.25,-125.8"/>
<polygon fill="black" stroke="black" points="303.25,-129.3 313.25,-125.8 303.25,-122.3 303.25,-129.3"/>
</g>
<!-- WalletModule -->
<g id="node5" class="node">
<title>WalletModule</title>
<polygon fill="#8dd3c7" stroke="black" points="120.37,-84.8 117.37,-88.8 96.37,-88.8 93.37,-84.8 23.63,-84.8 23.63,-48.8 120.37,-48.8 120.37,-84.8"/>
<text text-anchor="middle" x="72" y="-62.6" font-family="Times,serif" font-size="14.00">WalletModule</text>
</g>
<!-- WalletModule&#45;&gt;TransactionsModule -->
<g id="edge5" class="edge">
<title>WalletModule&#45;&gt;TransactionsModule</title>
<path fill="none" stroke="black" d="M72,-85.08C72,-106.12 72,-137.8 72,-137.8 72,-137.8 303.14,-137.8 303.14,-137.8"/>
<polygon fill="black" stroke="black" points="303.14,-141.3 313.14,-137.8 303.14,-134.3 303.14,-141.3"/>
</g>
<!-- TransactionsService  -->
<g id="node7" class="node">
<title>TransactionsService </title>
<polygon fill="#fb8072" stroke="black" points="445.51,-214.8 312.49,-214.8 312.49,-178.8 445.51,-178.8 445.51,-214.8"/>
<text text-anchor="middle" x="379" y="-192.6" font-family="Times,serif" font-size="14.00">TransactionsService </text>
</g>
<!-- TransactionsModule&#45;&gt;TransactionsService  -->
<g id="edge6" class="edge">
<title>TransactionsModule&#45;&gt;TransactionsService </title>
<path fill="none" stroke="black" stroke-dasharray="5,2" d="M379,-149.91C379,-149.91 379,-168.79 379,-168.79"/>
<polygon fill="black" stroke="black" points="375.5,-168.79 379,-178.79 382.5,-168.79 375.5,-168.79"/>
</g>
<!-- TransactionsService -->
<g id="node8" class="node">
<title>TransactionsService</title>
<ellipse fill="#fdb462" stroke="black" cx="754" cy="-66.8" rx="89.16" ry="18"/>
<text text-anchor="middle" x="754" y="-62.6" font-family="Times,serif" font-size="14.00">TransactionsService</text>
</g>
<!-- TransactionsService&#45;&gt;TransactionsModule -->
<g id="edge7" class="edge">
<title>TransactionsService&#45;&gt;TransactionsModule</title>
<path fill="none" stroke="black" d="M754,-85.08C754,-106.12 754,-137.8 754,-137.8 754,-137.8 454.75,-137.8 454.75,-137.8"/>
<polygon fill="black" stroke="black" points="454.75,-134.3 444.75,-137.8 454.75,-141.3 454.75,-134.3"/>
</g>
</g>
</svg>
