<?xml version="1.0" encoding="UTF-8" standalone="no"?>
<!DOCTYPE svg PUBLIC "-//W3C//DTD SVG 1.1//EN"
 "http://www.w3.org/Graphics/SVG/1.1/DTD/svg11.dtd">
<!-- Generated by graphviz version 2.47.3 (20210619.1520)
 -->
<!-- Title: dependencies Pages: 1 -->
<svg width="575pt" height="247pt"
 viewBox="0.00 0.00 575.00 246.80" xmlns="http://www.w3.org/2000/svg" xmlns:xlink="http://www.w3.org/1999/xlink">
<g id="graph0" class="graph" transform="scale(1 1) rotate(0) translate(4 242.8)">
<title>dependencies</title>
<polygon fill="white" stroke="transparent" points="-4,4 -4,-242.8 571,-242.8 571,4 -4,4"/>
<text text-anchor="middle" x="283.5" y="-8.2" font-family="sans-serif" font-size="14.00">dependencies</text>
<g id="clust1" class="cluster">
<title>cluster_BankModule</title>
<polygon fill="none" stroke="black" stroke-dasharray="1,5" points="8,-32.8 8,-230.8 559,-230.8 559,-32.8 8,-32.8"/>
</g>
<g id="clust6" class="cluster">
<title>cluster_BankModule_providers</title>
<polygon fill="none" stroke="black" points="415,-40.8 415,-92.8 551,-92.8 551,-40.8 415,-40.8"/>
</g>
<g id="clust4" class="cluster">
<title>cluster_BankModule_exports</title>
<polygon fill="none" stroke="black" points="214,-170.8 214,-222.8 322,-222.8 322,-170.8 214,-170.8"/>
</g>
<g id="clust3" class="cluster">
<title>cluster_BankModule_imports</title>
<polygon fill="none" stroke="black" points="16,-40.8 16,-92.8 407,-92.8 407,-40.8 16,-40.8"/>
</g>
<!-- FlutterwaveModule -->
<g id="node1" class="node">
<title>FlutterwaveModule</title>
<polygon fill="#8dd3c7" stroke="black" points="399.42,-84.8 396.42,-88.8 375.42,-88.8 372.42,-84.8 272.58,-84.8 272.58,-48.8 399.42,-48.8 399.42,-84.8"/>
<text text-anchor="middle" x="336" y="-62.6" font-family="Times,serif" font-size="14.00">FlutterwaveModule</text>
</g>
<!-- BankModule -->
<g id="node4" class="node">
<title>BankModule</title>
<polygon fill="#8dd3c7" stroke="black" points="312.6,-149.8 309.6,-153.8 288.6,-153.8 285.6,-149.8 223.4,-149.8 223.4,-113.8 312.6,-113.8 312.6,-149.8"/>
<text text-anchor="middle" x="268" y="-127.6" font-family="Times,serif" font-size="14.00">BankModule</text>
</g>
<!-- FlutterwaveModule&#45;&gt;BankModule -->
<g id="edge1" class="edge">
<title>FlutterwaveModule&#45;&gt;BankModule</title>
<path fill="none" stroke="black" d="M292.67,-84.91C292.67,-84.91 292.67,-103.79 292.67,-103.79"/>
<polygon fill="black" stroke="black" points="289.17,-103.79 292.67,-113.79 296.17,-103.79 289.17,-103.79"/>
</g>
<!-- MonnifyModule -->
<g id="node2" class="node">
<title>MonnifyModule</title>
<polygon fill="#8dd3c7" stroke="black" points="255.05,-84.8 252.05,-88.8 231.05,-88.8 228.05,-84.8 146.95,-84.8 146.95,-48.8 255.05,-48.8 255.05,-84.8"/>
<text text-anchor="middle" x="201" y="-62.6" font-family="Times,serif" font-size="14.00">MonnifyModule</text>
</g>
<!-- MonnifyModule&#45;&gt;BankModule -->
<g id="edge2" class="edge">
<title>MonnifyModule&#45;&gt;BankModule</title>
<path fill="none" stroke="black" d="M239.36,-84.91C239.36,-84.91 239.36,-103.79 239.36,-103.79"/>
<polygon fill="black" stroke="black" points="235.86,-103.79 239.36,-113.79 242.86,-103.79 235.86,-103.79"/>
</g>
<!-- SettingsModule -->
<g id="node3" class="node">
<title>SettingsModule</title>
<polygon fill="#8dd3c7" stroke="black" points="128.16,-84.8 125.16,-88.8 104.16,-88.8 101.16,-84.8 23.84,-84.8 23.84,-48.8 128.16,-48.8 128.16,-84.8"/>
<text text-anchor="middle" x="76" y="-62.6" font-family="Times,serif" font-size="14.00">SettingsModule</text>
</g>
<!-- SettingsModule&#45;&gt;BankModule -->
<g id="edge3" class="edge">
<title>SettingsModule&#45;&gt;BankModule</title>
<path fill="none" stroke="black" d="M76,-84.91C76,-104.14 76,-131.8 76,-131.8 76,-131.8 212.98,-131.8 212.98,-131.8"/>
<polygon fill="black" stroke="black" points="212.98,-135.3 222.98,-131.8 212.98,-128.3 212.98,-135.3"/>
</g>
<!-- BankService  -->
<g id="node5" class="node">
<title>BankService </title>
<polygon fill="#fb8072" stroke="black" points="313.53,-214.8 222.47,-214.8 222.47,-178.8 313.53,-178.8 313.53,-214.8"/>
<text text-anchor="middle" x="268" y="-192.6" font-family="Times,serif" font-size="14.00">BankService </text>
</g>
<!-- BankModule&#45;&gt;BankService  -->
<g id="edge4" class="edge">
<title>BankModule&#45;&gt;BankService </title>
<path fill="none" stroke="black" stroke-dasharray="5,2" d="M268,-149.91C268,-149.91 268,-168.79 268,-168.79"/>
<polygon fill="black" stroke="black" points="264.5,-168.79 268,-178.79 271.5,-168.79 264.5,-168.79"/>
</g>
<!-- BankService -->
<g id="node6" class="node">
<title>BankService</title>
<ellipse fill="#fdb462" stroke="black" cx="483" cy="-66.8" rx="60.25" ry="18"/>
<text text-anchor="middle" x="483" y="-62.6" font-family="Times,serif" font-size="14.00">BankService</text>
</g>
<!-- BankService&#45;&gt;BankModule -->
<g id="edge5" class="edge">
<title>BankService&#45;&gt;BankModule</title>
<path fill="none" stroke="black" d="M483,-84.91C483,-104.14 483,-131.8 483,-131.8 483,-131.8 322.81,-131.8 322.81,-131.8"/>
<polygon fill="black" stroke="black" points="322.81,-128.3 312.81,-131.8 322.81,-135.3 322.81,-128.3"/>
</g>
</g>
</svg>
